<svg id="Layer_1" enable-background="new 0 0 512 512" height="512" viewBox="0 0 512 512" width="512" xmlns="http://www.w3.org/2000/svg"><g><path d="m437.333 197.333c0 138.667-181.333 298.667-181.333 298.667s-181.333-160-181.333-298.667c0-100.147 81.185-181.333 181.333-181.333s181.333 81.186 181.333 181.333z" fill="#5639e6"/><path d="m363.334 165.744 1.661-.959-24-41.569c-28.119 16.234-60.995-2.812-60.995-35.216h-48v1.916c0 30.001-33.762 49.023-59.338 34.256l-1.657-.956-24 41.569 1.661.959c25.673 14.822 25.887 53.567 0 68.513l-1.661.959 24 41.569c27.931-16.127 60.995 2.584 60.995 35.215h48c0-32.831 33.215-51.254 60.995-35.215l24-41.569-1.661-.959c-25.762-14.874-25.819-53.607 0-68.513z" fill="#e2e0e0"/><path d="m364.99 235.22-24 41.56-1.65-.95c-25.733-14.856-59.34 4.386-59.34 34.25v1.92h-34c87.942-48.775 87.906-175.245 0-224h34v1.92c0 29.831 33.58 49.121 59.34 34.25l1.65-.95 24 41.56c-27.741 16.043-28.498 53.959 0 70.44z" fill="#cecccc"/><path d="m437.33 197.33c0 138.67-181.33 298.67-181.33 298.67s-8.36-7.38-21.5-20.35c48.02-47.39 159.83-169.43 159.83-278.32 0-92.87-69.81-169.43-159.83-180.07 108.832-12.813 202.83 72.197 202.83 180.07z" fill="#5639e6"/><path d="m256 0c-108.81 0-197.333 88.523-197.333 197.333 0 61.198 31.665 132.275 94.116 211.257 45.697 57.794 90.736 97.735 92.631 99.407 6.048 5.336 15.123 5.337 21.172 0 1.895-1.672 46.934-41.613 92.631-99.407 62.451-78.982 94.116-150.059 94.116-211.257 0-108.81-88.523-197.333-197.333-197.333zm0 474.171c-38.025-36.238-165.333-165.875-165.333-276.838 0-91.165 74.168-165.333 165.333-165.333s165.333 74.168 165.333 165.333c0 110.963-127.31 240.602-165.333 276.838z"/><circle cx="256" cy="200" r="32"/><path d="m372.995 221.359-1.661-.959c-15.183-8.766-15.056-32.107 0-40.8l1.661-.959c7.648-4.415 10.274-14.204 5.857-21.856l-24-41.569c-4.415-7.648-14.205-10.274-21.856-5.856l-1.656.957c-14.882 8.592-35.34-2.676-35.34-20.401v-1.916c0-8.836-7.164-16-16-16h-48c-8.836 0-16 7.164-16 16v1.916c0 17.615-20.348 29.053-35.338 20.399l-1.657-.957c-7.648-4.415-17.439-1.795-21.856 5.856l-24 41.569c-4.415 7.649-1.795 17.439 5.857 21.856l1.661.959c15.16 8.752 15.099 32.083 0 40.8l-1.661.959c-7.648 4.415-10.274 14.204-5.857 21.856l24 41.569c4.415 7.646 14.205 10.276 21.856 5.856l1.656-.957c15.047-8.686 35.339 2.844 35.339 20.399v1.92c0 8.836 7.164 16 16 16h48c8.836 0 16-7.164 16-16v-1.916c0-17.625 20.38-29.035 35.338-20.399l1.657.957c7.648 4.416 17.439 1.794 21.856-5.856l24-41.569c4.416-7.65 1.796-17.441-5.856-21.858zm-28.918 18.087-9.88 17.113c-29.287-7.744-60.358 9.949-68.325 39.441h-19.745c-8.036-29.744-39.296-47.114-68.324-39.44l-9.881-17.114c21.431-21.548 21.496-57.284 0-78.892l9.88-17.113c29.288 7.744 60.359-9.949 68.325-39.441h19.746c8.034 29.741 39.296 47.117 68.324 39.44l9.881 17.114c-21.431 21.549-21.496 57.284-.001 78.892z"/></g></svg>