<?xml version="1.0" encoding="iso-8859-1"?>
<svg version="1.1" id="Capa_1" xmlns="http://www.w3.org/2000/svg" xmlns:xlink="http://www.w3.org/1999/xlink" x="0px" y="0px"
	 viewBox="0 0 480 480" style="enable-background:new 0 0 480 480;" xml:space="preserve">
<g>
	<g>
		<path style="fill:#fff;" d="M456,0H24c-4.418,0-8,3.582-8,8v448c0,4.418,3.582,8,8,8h16v16h16v-16h80v16h16v-16h32v16h16v-16h80v16h16v-16h32v16h16
			v-16h80v16h16v-16h16c4.418,0,8-3.582,8-8V8C464,3.582,460.418,0,456,0z M160,448H32V16h128V448z M304,448H176V16h128V448z
			 M448,448H320V16h128V448z"/>
	</g>
</g>
<g>
	<g>
		<rect x="56" y="40" width="80" height="32" style="fill:#fff;"/>
	</g>
</g>
<g>
	<g>
		<rect x="56" y="104" width="80" height="32" style="fill:#fff;"/>
	</g>
</g>
<g>
	<g>
		<rect x="56" y="344" width="80" height="32" style="fill:#fff;"/>
	</g>
</g>
<g>
	<g>
		<rect x="56" y="408" width="80" height="32" style="fill:#fff;"/>
	</g>
</g>
<g>
	<g>
		<rect x="56" y="192" width="16" height="16" style="fill:#fff;"/>
	</g>
</g>
<g>
	<g>
		<rect x="200" y="40" width="80" height="32" style="fill:#fff;"/>
	</g>
</g>
<g>
	<g>
		<rect x="200" y="104" width="80" height="32" style="fill:#fff;"/>
	</g>
</g>
<g>
	<g>
		<rect x="200" y="344" width="80" height="32" style="fill:#fff;"/>
	</g>
</g>
<g>
	<g>
		<rect x="200" y="408" width="80" height="32" style="fill:#fff;"/>
	</g>
</g>
<g>
	<g>
		<rect x="200" y="192" width="16" height="16" style="fill:#fff;"/>
	</g>
</g>
<g>
	<g>
		<rect x="344" y="40" width="80" height="32" style="fill:#fff;"/>
	</g>
</g>
<g>
	<g>
		<rect x="344" y="104" width="80" height="32" style="fill:#fff;"/>
	</g>
</g>
<g>
	<g>
		<rect x="344" y="344" width="80" height="32" style="fill:#fff;"/>
	</g>
</g>
<g>
	<g>
		<rect x="344" y="408" width="80" height="32" style="fill:#fff;"/>
	</g>
</g>
<g>
	<g>
		<rect x="344" y="192" width="16" height="16" style="fill:#fff;"/>
	</g>
</g>
<g>
</g>
<g>
</g>
<g>
</g>
<g>
</g>
<g>
</g>
<g>
</g>
<g>
</g>
<g>
</g>
<g>
</g>
<g>
</g>
<g>
</g>
<g>
</g>
<g>
</g>
<g>
</g>
<g>
</g>
</svg>
